<?xml version="1.0" encoding="utf-8"?>
<svg id="master-artboard" viewBox="0 0 190.2262725830078 148.7330322265625" version="1.1" xmlns="http://www.w3.org/2000/svg" x="0px" y="0px" style="enable-background:new 0 0 1400 980;" width="190.2262725830078px" height="148.7330322265625px"><defs><style id="ee-google-fonts">@import url(https://fonts.googleapis.com/css?family=Aguafina+Script:400);</style></defs><rect id="ee-background" x="0" y="0" width="190.2262725830078" height="148.7330322265625" style="fill: white; fill-opacity: 0; pointer-events: none;"/><path d="M 121.45674133300781 37.23999786376953 C 121.0367431640625 37.9466667175293 120.5367431640625 38.6533317565918 119.95674133300781 39.36000061035156 C 119.37007141113281 40.073333740234375 118.71007537841797 40.76333236694336 117.97674560546875 41.43000030517578 C 117.23674011230469 42.09000015258789 116.42674255371094 42.630001068115234 115.54674530029297 43.04999923706055 C 114.66674041748047 43.46333312988281 113.81007385253906 43.66999816894531 112.97674560546875 43.66999816894531 C 111.65007781982422 43.66999816894531 110.98674011230469 42.68000030517578 110.98674011230469 40.70000076293945 C 110.98674011230469 38.186668395996094 111.72007751464844 35.5533332824707 113.1867446899414 32.79999923706055 C 114.64674377441406 30.046667098999023 116.51341247558594 27.799999237060547 118.7867431640625 26.059999465942383 C 118.93341064453125 25.946666717529297 119.13007354736328 25.81333351135254 119.37673950195312 25.65999984741211 C 119.62340545654297 25.50666618347168 120.08674621582031 25.299999237060547 120.76673889160156 25.040000915527344 C 121.44673919677734 24.773332595825195 122.06674194335938 24.639999389648438 122.62673950195312 24.639999389648438 C 123.06007385253906 24.639999389648438 123.4367446899414 24.703332901000977 123.75674438476562 24.829999923706055 C 123.79007720947266 24.850000381469727 123.830078125 24.860000610351562 123.87673950195312 24.860000610351562 C 123.99007415771484 24.860000610351562 124.07674407958984 24.803333282470703 124.1367416381836 24.690000534057617 C 124.47674560546875 24.41666603088379 125.01341247558594 24.280000686645508 125.74674224853516 24.280000686645508 L 125.9367446899414 24.280000686645508 C 126.16340637207031 24.280000686645508 126.27674102783203 24.393333435058594 126.27674102783203 24.6200008392334 C 126.27674102783203 24.96666717529297 126.01673889160156 25.52666664123535 125.49674224853516 26.299999237060547 C 124.97674560546875 27.066665649414062 124.493408203125 27.713333129882812 124.04673767089844 28.239999771118164 C 123.6000747680664 28.766666412353516 123.2000732421875 29.22333335876465 122.84674072265625 29.610000610351562 C 122.25341033935547 30.229999542236328 121.83674621582031 30.540000915527344 121.59674072265625 30.540000915527344 C 121.48340606689453 30.540000915527344 121.42674255371094 30.459999084472656 121.42674255371094 30.299999237060547 C 121.42674255371094 29.739999771118164 121.88340759277344 28.64666748046875 122.79673767089844 27.020000457763672 C 122.81007385253906 26.986665725708008 122.89007568359375 26.856666564941406 123.0367431640625 26.6299991607666 C 123.18341064453125 26.40999984741211 123.2867431640625 26.22333335876465 123.34674072265625 26.06999969482422 C 123.41340637207031 25.91666603088379 123.44673919677734 25.77666664123535 123.44673919677734 25.649999618530273 C 123.44673919677734 25.376667022705078 123.23007202148438 25.239999771118164 122.79673767089844 25.239999771118164 C 122.44340515136719 25.239999771118164 122.0567398071289 25.35333251953125 121.6367416381836 25.579999923706055 C 121.21007537841797 25.799999237060547 120.87673950195312 26.023332595825195 120.6367416381836 26.25 L 120.25674438476562 26.579999923706055 C 118.5567398071289 28.15333366394043 117.02340698242188 30.22333335876465 115.65673828125 32.790000915527344 C 114.29007720947266 35.356666564941406 113.60674285888672 37.686668395996094 113.60674285888672 39.779998779296875 C 113.60674285888672 41.29999923706055 114.08673858642578 42.060001373291016 115.04674530029297 42.060001373291016 C 115.17340850830078 42.060001373291016 115.32007598876953 42.04666519165039 115.48674011230469 42.02000045776367 C 115.65341186523438 41.98666763305664 115.94340515136719 41.87666702270508 116.35674285888672 41.689998626708984 C 116.76341247558594 41.5099983215332 117.16340637207031 41.253334045410156 117.5567398071289 40.91999816894531 C 117.94340515136719 40.59333419799805 118.39674377441406 40.09000015258789 118.91674041748047 39.40999984741211 C 119.4367446899414 38.72999954223633 119.9300765991211 37.93333435058594 120.39674377441406 37.02000045776367 C 120.52340698242188 36.766666412353516 120.69007873535156 36.4033317565918 120.89674377441406 35.93000030517578 C 121.11007690429688 35.4566650390625 121.27674102783203 35.11000061035156 121.39674377441406 34.88999938964844 C 121.51673889160156 34.663333892822266 121.61674499511719 34.54999923706055 121.69673919677734 34.54999923706055 C 121.80340576171875 34.54999923706055 121.89007568359375 34.650001525878906 121.95674133300781 34.849998474121094 C 122.02340698242188 35.04999923706055 122.0567398071289 35.22333526611328 122.0567398071289 35.369998931884766 C 122.0567398071289 35.96333312988281 121.85674285888672 36.586666107177734 121.45674133300781 37.23999786376953 ZM 126.8297348022461 38.029998779296875 C 126.70307159423828 38.029998779296875 126.63973999023438 37.983333587646484 126.63973999023438 37.88999938964844 C 126.63973999023438 37.84333419799805 126.66307067871094 37.779998779296875 126.7097396850586 37.70000076293945 C 127.65640258789062 36.22666549682617 128.12974548339844 35.21666717529297 128.12974548339844 34.66999816894531 C 128.12974548339844 34.529998779296875 128.0730743408203 34.459999084472656 127.9597396850586 34.459999084472656 C 127.479736328125 34.459999084472656 126.35307312011719 35.54666519165039 124.5797348022461 37.720001220703125 C 124.05307006835938 38.393333435058594 123.55973815917969 39.09000015258789 123.09973907470703 39.810001373291016 C 122.64640808105469 40.529998779296875 122.3297348022461 41.08000183105469 122.14973449707031 41.459999084472656 L 121.86973571777344 42.02000045776367 C 121.67640686035156 42.400001525878906 121.3797378540039 42.753334045410156 120.979736328125 43.08000183105469 C 120.5797348022461 43.413333892822266 120.16307067871094 43.58000183105469 119.729736328125 43.58000183105469 C 119.5030746459961 43.58000183105469 119.38973999023438 43.52333450317383 119.38973999023438 43.40999984741211 C 119.38973999023438 43.310001373291016 119.4597396850586 43.11000061035156 119.59973907470703 42.810001373291016 C 119.73307037353516 42.503334045410156 119.89640808105469 42.16666793823242 120.08973693847656 41.79999923706055 C 120.28307342529297 41.43333435058594 120.47640228271484 41.073333740234375 120.66973876953125 40.720001220703125 C 120.85640716552734 40.36666488647461 121.01640319824219 40.06999969482422 121.14973449707031 39.83000183105469 L 121.3597412109375 39.470001220703125 L 123.8797378540039 35.08000183105469 C 124.8597412109375 33.23999786376953 125.88307189941406 32.31999969482422 126.94973754882812 32.31999969482422 C 127.09640502929688 32.31999969482422 127.16973876953125 32.37666702270508 127.16973876953125 32.48999786376953 C 127.16973876953125 32.630001068115234 126.82307434082031 33.22666549682617 126.1297378540039 34.279998779296875 C 125.42974090576172 35.32666778564453 125.0230712890625 35.99333190917969 124.90973663330078 36.279998779296875 C 124.88307189941406 36.37333297729492 124.86973571777344 36.43000030517578 124.86973571777344 36.45000076293945 C 124.86973571777344 36.483333587646484 124.88307189941406 36.5 124.90973663330078 36.5 C 124.94306945800781 36.5 124.99974060058594 36.459999084472656 125.0797348022461 36.380001068115234 C 126.27973937988281 35.02000045776367 127.55307006835938 33.810001373291016 128.8997344970703 32.75 C 128.979736328125 32.66999816894531 129.15640258789062 32.5533332824707 129.4297332763672 32.400001525878906 C 129.6964111328125 32.253334045410156 129.9364013671875 32.18000030517578 130.1497344970703 32.18000030517578 C 130.44973754882812 32.18000030517578 130.5997314453125 32.44333267211914 130.5997314453125 32.970001220703125 C 130.5997314453125 33.5433349609375 130.4097442626953 34.22999954223633 130.0297393798828 35.029998779296875 C 129.64306640625 35.83000183105469 129.12307739257812 36.53333282470703 128.46974182128906 37.13999938964844 L 128.36973571777344 37.23999786376953 C 128.30307006835938 37.28666687011719 128.2364044189453 37.34000015258789 128.16973876953125 37.400001525878906 C 128.09640502929688 37.45333480834961 128.00306701660156 37.52000045776367 127.88973999023438 37.599998474121094 C 127.77640533447266 37.68000030517578 127.66307067871094 37.746665954589844 127.54973602294922 37.79999923706055 C 127.44306945800781 37.86000061035156 127.32307434082031 37.913333892822266 127.18973541259766 37.959999084472656 C 127.06307220458984 38.00666809082031 126.94306945800781 38.029998779296875 126.8297348022461 38.029998779296875 ZM 134.42149353027344 34.86000061035156 C 134.6148223876953 34.459999084472656 134.71148681640625 34.11000061035156 134.71148681640625 33.810001373291016 C 134.71148681640625 33.54999923706055 134.63148498535156 33.41999816894531 134.4714813232422 33.41999816894531 C 134.37149047851562 33.41999816894531 134.26148986816406 33.45000076293945 134.14149475097656 33.51000213623047 C 134.021484375 33.563331604003906 133.93148803710938 33.62333297729492 133.87149047851562 33.689998626708984 L 133.75148010253906 33.779998779296875 C 133.25148010253906 34.21333312988281 132.63148498535156 35.003334045410156 131.89149475097656 36.150001525878906 C 131.1448211669922 37.290000915527344 130.771484375 38.02000045776367 130.771484375 38.34000015258789 C 130.771484375 38.40666580200195 130.78814697265625 38.439998626708984 130.8214874267578 38.439998626708984 C 130.91482543945312 38.439998626708984 131.12815856933594 38.36000061035156 131.46148681640625 38.20000076293945 C 131.78814697265625 38.040000915527344 132.25814819335938 37.663333892822266 132.87149047851562 37.06999969482422 C 133.49148559570312 36.47666549682617 134.00814819335938 35.73999786376953 134.42149353027344 34.86000061035156 M 133.34149169921875 40.36000061035156 C 134.1881561279297 39.573333740234375 135.40481567382812 38.27666473388672 136.99148559570312 36.470001220703125 C 137.03814697265625 36.42333221435547 137.07815551757812 36.400001525878906 137.11148071289062 36.400001525878906 C 137.1448211669922 36.400001525878906 137.16148376464844 36.43333435058594 137.16148376464844 36.5 C 137.16148376464844 36.79999923706055 137.04148864746094 37.09333419799805 136.80148315429688 37.380001068115234 C 135.6148223876953 38.69333267211914 134.5648193359375 39.790000915527344 133.6514892578125 40.66999816894531 C 132.9781494140625 41.34333419799805 132.17816162109375 41.98666763305664 131.25148010253906 42.599998474121094 C 130.32481384277344 43.220001220703125 129.5581512451172 43.529998779296875 128.9514923095703 43.529998779296875 C 128.21148681640625 43.529998779296875 127.84148406982422 43.016666412353516 127.84148406982422 41.9900016784668 C 127.84148406982422 40.29666519165039 128.4714813232422 38.52000045776367 129.7314910888672 36.65999984741211 C 130.9848175048828 34.80666732788086 132.434814453125 33.5533332824707 134.08148193359375 32.900001525878906 C 134.7748260498047 32.606666564941406 135.4014892578125 32.459999084472656 135.96148681640625 32.459999084472656 C 136.58148193359375 32.459999084472656 136.8914794921875 32.709999084472656 136.8914794921875 33.209999084472656 C 136.8914794921875 34.13666534423828 136.2348175048828 35.20000076293945 134.92149353027344 36.400001525878906 C 133.6148223876953 37.599998474121094 132.1448211669922 38.51333236694336 130.51148986816406 39.13999938964844 C 130.44482421875 39.1533317565918 130.38815307617188 39.2066650390625 130.34149169921875 39.29999923706055 C 130.1014862060547 39.959999084472656 129.9814910888672 40.54666519165039 129.9814910888672 41.060001373291016 C 129.9814910888672 41.63333511352539 130.19815063476562 41.91999816894531 130.63148498535156 41.91999816894531 C 131.3181610107422 41.91999816894531 132.2214813232422 41.400001525878906 133.34149169921875 40.36000061035156 ZM 144.421875 38.48999786376953 C 143.5418701171875 39.57666778564453 142.72854614257812 40.52333450317383 141.98187255859375 41.33000183105469 C 141.2418670654297 42.13666534423828 140.71853637695312 42.676666259765625 140.41188049316406 42.95000076293945 L 139.9618682861328 43.34000015258789 C 139.70187377929688 43.54666519165039 139.5018768310547 43.650001525878906 139.36187744140625 43.650001525878906 C 139.18186950683594 43.650001525878906 139.0918731689453 43.50666809082031 139.0918731689453 43.220001220703125 C 139.0918731689453 42.526668548583984 139.4618682861328 40.996665954589844 140.20187377929688 38.630001068115234 L 140.0518798828125 38.70000076293945 C 139.23854064941406 39.71333312988281 138.47520446777344 40.606666564941406 137.76187133789062 41.380001068115234 C 137.0485382080078 42.1533317565918 136.5418701171875 42.676666259765625 136.2418670654297 42.95000076293945 L 135.78187561035156 43.34000015258789 C 135.52853393554688 43.54666519165039 135.3285369873047 43.650001525878906 135.18186950683594 43.650001525878906 C 135.008544921875 43.650001525878906 134.921875 43.50666809082031 134.921875 43.220001220703125 C 134.921875 42.41999816894531 135.27188110351562 40.95000076293945 135.9718780517578 38.810001373291016 C 136.6785430908203 36.676666259765625 137.36854553222656 34.97666549682617 138.0418701171875 33.709999084472656 C 138.2152099609375 33.37666702270508 138.46853637695312 33.09000015258789 138.8018798828125 32.849998474121094 C 139.14187622070312 32.61000061035156 139.5018768310547 32.48999786376953 139.88186645507812 32.48999786376953 C 139.99520874023438 32.48999786376953 140.0518798828125 32.53666687011719 140.0518798828125 32.630001068115234 C 140.0518798828125 32.72999954223633 139.98854064941406 32.90666580200195 139.86187744140625 33.15999984741211 C 139.4152069091797 34.086666107177734 138.86187744140625 35.426666259765625 138.20187377929688 37.18000030517578 C 137.5485382080078 38.93333435058594 137.2218780517578 40.14666748046875 137.2218780517578 40.81999969482422 C 137.2218780517578 40.900001525878906 137.23854064941406 40.939998626708984 137.27188110351562 40.939998626708984 C 137.33187866210938 40.939998626708984 137.44187927246094 40.849998474121094 137.60186767578125 40.66999816894531 C 137.7952117919922 40.496665954589844 138.0452117919922 40.25666809082031 138.35186767578125 39.95000076293945 C 138.65187072753906 39.650001525878906 139.11520385742188 39.11000061035156 139.7418670654297 38.33000183105469 C 140.36854553222656 37.55666732788086 140.80853271484375 36.87333297729492 141.06187438964844 36.279998779296875 L 142.2118682861328 33.709999084472656 C 142.4718780517578 33.296669006347656 142.7652130126953 32.98999786376953 143.0918731689453 32.790000915527344 C 143.4185333251953 32.59000015258789 143.7085418701172 32.48999786376953 143.9618682861328 32.48999786376953 C 144.15521240234375 32.48999786376953 144.2518768310547 32.53666687011719 144.2518768310547 32.630001068115234 C 144.2518768310547 32.6966667175293 144.18186950683594 32.87333297729492 144.0418701171875 33.15999984741211 C 142.64854431152344 36.0533332824707 141.77520751953125 38.52666473388672 141.421875 40.58000183105469 C 141.40853881835938 40.63999938964844 141.40187072753906 40.70333480834961 141.40187072753906 40.77000045776367 C 141.40187072753906 40.86333465576172 141.42520141601562 40.90999984741211 141.4718780517578 40.90999984741211 C 141.585205078125 40.90999984741211 141.98521423339844 40.540000915527344 142.671875 39.79999923706055 C 143.35853576660156 39.0533332824707 143.82186889648438 38.48666763305664 144.06187438964844 38.099998474121094 C 144.09521484375 38.040000915527344 144.11187744140625 37.97666549682617 144.11187744140625 37.90999984741211 C 144.0452117919922 37.77000045776367 144.01187133789062 37.58000183105469 144.01187133789062 37.34000015258789 C 144.01187133789062 36.380001068115234 144.49520874023438 35.310001373291016 145.4618682861328 34.130001068115234 C 146.43521118164062 32.9566650390625 147.4152069091797 32.186668395996094 148.40187072753906 31.81999969482422 C 148.5018768310547 31.786666870117188 148.56854248046875 31.770000457763672 148.60186767578125 31.770000457763672 C 148.69520568847656 31.770000457763672 148.7418670654297 31.810001373291016 148.7418670654297 31.889999389648438 C 148.72854614257812 32.336666107177734 147.52188110351562 34.26333236694336 145.1218719482422 37.66999816894531 C 145.06854248046875 37.73666763305664 145.0418701171875 37.78666687011719 145.0418701171875 37.81999969482422 C 145.0418701171875 37.880001068115234 145.06854248046875 37.91999816894531 145.1218719482422 37.939998626708984 C 145.30853271484375 38.03333282470703 145.49853515625 38.08000183105469 145.69187927246094 38.08000183105469 C 146.41188049316406 38.08000183105469 147.27520751953125 37.47999954223633 148.28187561035156 36.279998779296875 C 148.31520080566406 36.246665954589844 148.3418731689453 36.22999954223633 148.36187744140625 36.22999954223633 C 148.44187927246094 36.22999954223633 148.48187255859375 36.31999969482422 148.48187255859375 36.5 C 148.48187255859375 36.67333221435547 148.28854370117188 36.97666549682617 147.90187072753906 37.40999984741211 C 147.19520568847656 38.209999084472656 146.38853454589844 38.61000061035156 145.48187255859375 38.61000061035156 C 145.16188049316406 38.61000061035156 144.84854125976562 38.54666519165039 144.5418701171875 38.41999816894531 L 144.421875 38.48999786376953 ZM 156.9588623046875 37.23999786376953 C 156.5388641357422 37.9466667175293 156.0388641357422 38.6533317565918 155.4588623046875 39.36000061035156 C 154.8721923828125 40.073333740234375 154.21218872070312 40.76333236694336 153.47886657714844 41.43000030517578 C 152.73886108398438 42.09000015258789 151.92886352539062 42.630001068115234 151.04885864257812 43.04999923706055 C 150.1688690185547 43.46333312988281 149.31219482421875 43.66999816894531 148.47886657714844 43.66999816894531 C 147.15219116210938 43.66999816894531 146.48886108398438 42.68000030517578 146.48886108398438 40.70000076293945 C 146.48886108398438 38.186668395996094 147.22219848632812 35.5533332824707 148.68885803222656 32.79999923706055 C 150.14886474609375 30.046667098999023 152.01553344726562 27.799999237060547 154.2888641357422 26.059999465942383 C 154.43553161621094 25.946666717529297 154.6322021484375 25.81333351135254 154.8788604736328 25.65999984741211 C 155.1255340576172 25.50666618347168 155.5888671875 25.299999237060547 156.26885986328125 25.040000915527344 C 156.94886779785156 24.773332595825195 157.56886291503906 24.639999389648438 158.1288604736328 24.639999389648438 C 158.56219482421875 24.639999389648438 158.93885803222656 24.703332901000977 159.2588653564453 24.829999923706055 C 159.2921905517578 24.850000381469727 159.3321990966797 24.860000610351562 159.3788604736328 24.860000610351562 C 159.49220275878906 24.860000610351562 159.578857421875 24.803333282470703 159.63885498046875 24.690000534057617 C 159.97886657714844 24.41666603088379 160.51553344726562 24.280000686645508 161.24887084960938 24.280000686645508 L 161.43885803222656 24.280000686645508 C 161.66552734375 24.280000686645508 161.77886962890625 24.393333435058594 161.77886962890625 24.6200008392334 C 161.77886962890625 24.96666717529297 161.51885986328125 25.52666664123535 160.99887084960938 26.299999237060547 C 160.47886657714844 27.066665649414062 159.9955291748047 27.713333129882812 159.54885864257812 28.239999771118164 C 159.10220336914062 28.766666412353516 158.7021942138672 29.22333335876465 158.34886169433594 29.610000610351562 C 157.75552368164062 30.229999542236328 157.3388671875 30.540000915527344 157.09886169433594 30.540000915527344 C 156.98553466796875 30.540000915527344 156.92886352539062 30.459999084472656 156.92886352539062 30.299999237060547 C 156.92886352539062 29.739999771118164 157.38552856445312 28.64666748046875 158.29885864257812 27.020000457763672 C 158.31219482421875 26.986665725708008 158.39219665527344 26.856666564941406 158.5388641357422 26.6299991607666 C 158.68553161621094 26.40999984741211 158.7888641357422 26.22333335876465 158.84886169433594 26.06999969482422 C 158.91552734375 25.91666603088379 158.94886779785156 25.77666664123535 158.94886779785156 25.649999618530273 C 158.94886779785156 25.376667022705078 158.73219299316406 25.239999771118164 158.29885864257812 25.239999771118164 C 157.94552612304688 25.239999771118164 157.55886840820312 25.35333251953125 157.13885498046875 25.579999923706055 C 156.71218872070312 25.799999237060547 156.3788604736328 26.023332595825195 156.13885498046875 26.25 L 155.7588653564453 26.579999923706055 C 154.05886840820312 28.15333366394043 152.52552795410156 30.22333335876465 151.1588592529297 32.790000915527344 C 149.7921905517578 35.356666564941406 149.10885620117188 37.686668395996094 149.10885620117188 39.779998779296875 C 149.10885620117188 41.29999923706055 149.5888671875 42.060001373291016 150.54885864257812 42.060001373291016 C 150.675537109375 42.060001373291016 150.8221893310547 42.04666519165039 150.98886108398438 42.02000045776367 C 151.15553283691406 41.98666763305664 151.44552612304688 41.87666702270508 151.85885620117188 41.689998626708984 C 152.26553344726562 41.5099983215332 152.66552734375 41.253334045410156 153.05886840820312 40.91999816894531 C 153.44552612304688 40.59333419799805 153.89886474609375 40.09000015258789 154.4188690185547 39.40999984741211 C 154.93885803222656 38.72999954223633 155.43218994140625 37.93333435058594 155.89886474609375 37.02000045776367 C 156.02552795410156 36.766666412353516 156.19219970703125 36.4033317565918 156.39886474609375 35.93000030517578 C 156.61219787597656 35.4566650390625 156.77886962890625 35.11000061035156 156.89886474609375 34.88999938964844 C 157.01885986328125 34.663333892822266 157.11886596679688 34.54999923706055 157.19886779785156 34.54999923706055 C 157.30552673339844 34.54999923706055 157.39219665527344 34.650001525878906 157.4588623046875 34.849998474121094 C 157.52552795410156 35.04999923706055 157.55886840820312 35.22333526611328 157.55886840820312 35.369998931884766 C 157.55886840820312 35.96333312988281 157.35885620117188 36.586666107177734 156.9588623046875 37.23999786376953 ZM 163.3082733154297 41.4900016784668 C 161.9816131591797 42.70333480834961 161.0716094970703 43.310001373291016 160.57827758789062 43.310001373291016 C 160.3516082763672 43.310001373291016 160.23828125 43.18333435058594 160.23828125 42.93000030517578 C 160.23828125 42.61000061035156 160.37828063964844 42.119998931884766 160.6582794189453 41.459999084472656 C 160.9382781982422 40.80666732788086 161.22161865234375 40.233333587646484 161.50827026367188 39.7400016784668 L 161.94827270507812 38.98999786376953 C 162.00827026367188 38.87666702270508 162.0382843017578 38.80666732788086 162.0382843017578 38.779998779296875 C 162.0382843017578 38.746665954589844 162.0216064453125 38.72999954223633 161.98828125 38.72999954223633 C 161.92828369140625 38.72999954223633 161.8082733154297 38.81666564941406 161.62828063964844 38.98999786376953 C 161.14828491210938 39.516666412353516 160.6016082763672 40.08000183105469 159.98828125 40.68000030517578 C 159.37493896484375 41.279998779296875 158.87493896484375 41.75 158.48828125 42.09000015258789 L 157.9382781982422 42.56999969482422 C 157.31161499023438 43.04999923706055 156.83160400390625 43.290000915527344 156.49827575683594 43.290000915527344 C 156.1449432373047 43.290000915527344 155.96827697753906 43.016666412353516 155.96827697753906 42.470001220703125 C 155.96827697753906 42.1966667175293 156.04493713378906 41.779998779296875 156.19827270507812 41.220001220703125 C 156.3516082763672 40.65999984741211 156.46827697753906 40.28666687011719 156.54827880859375 40.099998474121094 C 156.91494750976562 39.20000076293945 157.37493896484375 38.32666778564453 157.92828369140625 37.47999954223633 C 158.47494506835938 36.633331298828125 159.12493896484375 35.81999969482422 159.87828063964844 35.040000915527344 C 160.63160705566406 34.266666412353516 161.50827026367188 33.63999938964844 162.50827026367188 33.15999984741211 C 163.50827026367188 32.68000030517578 164.54493713378906 32.439998626708984 165.61827087402344 32.439998626708984 C 166.51161193847656 32.439998626708984 166.95828247070312 32.57666778564453 166.95828247070312 32.849998474121094 C 166.95828247070312 33.01000213623047 166.75827026367188 33.09000015258789 166.3582763671875 33.09000015258789 C 164.88494873046875 33.09000015258789 163.50494384765625 33.71666717529297 162.21827697753906 34.970001220703125 C 160.93161010742188 36.22999954223633 159.88827514648438 37.67333221435547 159.08827209472656 39.29999923706055 C 158.8616180419922 39.753334045410156 158.74827575683594 40.130001068115234 158.74827575683594 40.43000030517578 C 158.74827575683594 40.61000061035156 158.80494689941406 40.70000076293945 158.91827392578125 40.70000076293945 C 159.1116180419922 40.70000076293945 159.3616180419922 40.563331604003906 159.66827392578125 40.290000915527344 C 159.85494995117188 40.11000061035156 160.1149444580078 39.87666702270508 160.44827270507812 39.59000015258789 C 160.7749481201172 39.3033332824707 161.30494689941406 38.753334045410156 162.0382843017578 37.939998626708984 C 162.7782745361328 37.119998931884766 163.3616180419922 36.36000061035156 163.7882843017578 35.65999984741211 C 163.85494995117188 35.52666473388672 163.95494079589844 35.37333297729492 164.08827209472656 35.20000076293945 C 164.228271484375 35.02666473388672 164.48828125 34.790000915527344 164.86827087402344 34.48999786376953 C 165.25494384765625 34.1966667175293 165.64161682128906 34.04999923706055 166.0282745361328 34.04999923706055 C 166.2349395751953 34.04999923706055 166.33827209472656 34.106666564941406 166.33827209472656 34.220001220703125 C 166.33827209472656 34.246665954589844 166.31494140625 34.29999923706055 166.26828002929688 34.380001068115234 C 166.2016143798828 34.51333236694336 166.0216064453125 34.83333206176758 165.728271484375 35.34000015258789 C 165.42828369140625 35.85333251953125 165.151611328125 36.34000015258789 164.89828491210938 36.79999923706055 C 164.63827514648438 37.253334045410156 164.3649444580078 37.746665954589844 164.07827758789062 38.279998779296875 C 163.79161071777344 38.81999969482422 163.56494140625 39.279998779296875 163.39828491210938 39.65999984741211 C 163.2316131591797 40.04666519165039 163.14828491210938 40.3033332824707 163.14828491210938 40.43000030517578 C 163.14828491210938 40.529998779296875 163.1882781982422 40.58000183105469 163.26828002929688 40.58000183105469 C 163.50827026367188 40.58000183105469 164.09161376953125 40.11333465576172 165.01828002929688 39.18000030517578 C 165.71827697753906 38.4466667175293 166.54161071777344 37.5433349609375 167.48828125 36.470001220703125 C 167.53494262695312 36.42333221435547 167.574951171875 36.400001525878906 167.6082763671875 36.400001525878906 C 167.64161682128906 36.400001525878906 167.6582794189453 36.43333435058594 167.6582794189453 36.5 C 167.6582794189453 36.79999923706055 167.5382843017578 37.09333419799805 167.29827880859375 37.380001068115234 C 165.7316131591797 39.12666702270508 164.401611328125 40.496665954589844 163.3082733154297 41.4900016784668 ZM 168.67202758789062 33.15999984741211 C 168.572021484375 33.11333465576172 168.5220184326172 33.05666732788086 168.5220184326172 32.98999786376953 C 168.5220184326172 32.89666748046875 168.6120147705078 32.849998474121094 168.79202270507812 32.849998474121094 L 169.51202392578125 32.849998474121094 C 171.17202758789062 30.163333892822266 172.5320281982422 28.19333267211914 173.59202575683594 26.940000534057617 C 174.6920166015625 25.65999984741211 175.7853546142578 24.706666946411133 176.8720245361328 24.079999923706055 C 177.96534729003906 23.446666717529297 178.80535888671875 23.1299991607666 179.39202880859375 23.1299991607666 C 179.7786865234375 23.1299991607666 179.97201538085938 23.296667098999023 179.97201538085938 23.6299991607666 C 179.97201538085938 24.3700008392334 179.59202575683594 25.1200008392334 178.83201599121094 25.8799991607666 C 178.072021484375 26.639999389648438 177.42868041992188 27.130001068115234 176.9020233154297 27.350000381469727 C 176.80201721191406 27.383333206176758 176.7386932373047 27.399999618530273 176.71202087402344 27.399999618530273 C 176.64535522460938 27.399999618530273 176.6120147705078 27.360000610351562 176.6120147705078 27.279998779296875 C 176.6120147705078 27.233333587646484 176.63536071777344 27.170000076293945 176.68202209472656 27.09000015258789 C 177.6086883544922 25.729999542236328 178.072021484375 24.8266658782959 178.072021484375 24.3799991607666 C 178.072021484375 24.266666412353516 178.02536010742188 24.209999084472656 177.93202209472656 24.209999084472656 C 177.7386932373047 24.209999084472656 177.41868591308594 24.386667251586914 176.97201538085938 24.739999771118164 C 175.88536071777344 25.553333282470703 173.98202514648438 28.256668090820312 171.26202392578125 32.849998474121094 L 173.1120147705078 32.849998474121094 C 173.33201599121094 32.849998474121094 173.4420166015625 32.880001068115234 173.4420166015625 32.939998626708984 C 173.4420166015625 33.02000045776367 173.38201904296875 33.11000061035156 173.26202392578125 33.209999084472656 C 173.1420135498047 33.3033332824707 173.05201721191406 33.349998474121094 172.9920196533203 33.349998474121094 L 171.2820281982422 33.349998474121094 C 171.06202697753906 33.349998474121094 170.9520263671875 33.40666580200195 170.9520263671875 33.52000045776367 C 170.9520263671875 33.56666564941406 170.96202087402344 33.703330993652344 170.98202514648438 33.93000030517578 C 171.00868225097656 34.150001525878906 171.0220184326172 34.32666778564453 171.0220184326172 34.459999084472656 C 171.0220184326172 35.9466667175293 170.56869506835938 37.733333587646484 169.66201782226562 39.81999969482422 C 168.76202392578125 41.90666580200195 167.59202575683594 43.90999984741211 166.1520233154297 45.83000183105469 C 165.31869506835938 46.936668395996094 164.54869079589844 47.849998474121094 163.84202575683594 48.56999969482422 C 163.1420135498047 49.290000915527344 162.6120147705078 49.766666412353516 162.25201416015625 50 C 161.8920135498047 50.22666549682617 161.6220245361328 50.34000015258789 161.4420166015625 50.34000015258789 C 161.22201538085938 50.34000015258789 161.1120147705078 50.189998626708984 161.1120147705078 49.88999938964844 C 161.1120147705078 48.41666793823242 162.63868713378906 44.983333587646484 165.6920166015625 39.59000015258789 C 165.6920166015625 39.57666778564453 165.84535217285156 39.290000915527344 166.1520233154297 38.72999954223633 C 166.4520263671875 38.16999816894531 166.89535522460938 37.366668701171875 167.48202514648438 36.31999969482422 C 168.06202697753906 35.266666412353516 168.648681640625 34.26000213623047 169.2420196533203 33.29999923706055 L 168.67202758789062 33.15999984741211 M 170.3720245361328 35.130001068115234 C 170.3720245361328 34.90333557128906 170.34869384765625 34.69333267211914 170.30201721191406 34.5 C 167.77536010742188 38.85333251953125 166.01535034179688 42.08000183105469 165.0220184326172 44.18000030517578 C 164.1086883544922 46.06666564941406 163.6520233154297 47.16999816894531 163.6520233154297 47.48999786376953 C 163.6520233154297 47.54999923706055 163.67535400390625 47.58000183105469 163.72201538085938 47.58000183105469 C 163.9486846923828 47.58000183105469 164.50201416015625 47.060001373291016 165.38201904296875 46.02000045776367 C 166.30868530273438 44.93333435058594 167.3720245361328 43.21333312988281 168.572021484375 40.86000061035156 C 169.7720184326172 38.51333236694336 170.3720245361328 36.60333251953125 170.3720245361328 35.130001068115234 ZM 177.4444122314453 34.86000061035156 C 177.6377410888672 34.459999084472656 177.73440551757812 34.11000061035156 177.73440551757812 33.810001373291016 C 177.73440551757812 33.54999923706055 177.65440368652344 33.41999816894531 177.49440002441406 33.41999816894531 C 177.3944091796875 33.41999816894531 177.28440856933594 33.45000076293945 177.16441345214844 33.51000213623047 C 177.04440307617188 33.563331604003906 176.95440673828125 33.62333297729492 176.8944091796875 33.689998626708984 L 176.77439880371094 33.779998779296875 C 176.27439880371094 34.21333312988281 175.65440368652344 35.003334045410156 174.91441345214844 36.150001525878906 C 174.16773986816406 37.290000915527344 173.79440307617188 38.02000045776367 173.79440307617188 38.34000015258789 C 173.79440307617188 38.40666580200195 173.81106567382812 38.439998626708984 173.8444061279297 38.439998626708984 C 173.937744140625 38.439998626708984 174.1510772705078 38.36000061035156 174.48440551757812 38.20000076293945 C 174.81106567382812 38.040000915527344 175.28106689453125 37.663333892822266 175.8944091796875 37.06999969482422 C 176.514404296875 36.47666549682617 177.03106689453125 35.73999786376953 177.4444122314453 34.86000061035156 M 176.36441040039062 40.36000061035156 C 177.21107482910156 39.573333740234375 178.427734375 38.27666473388672 180.014404296875 36.470001220703125 C 180.06106567382812 36.42333221435547 180.10107421875 36.400001525878906 180.1343994140625 36.400001525878906 C 180.16773986816406 36.400001525878906 180.1844024658203 36.43333435058594 180.1844024658203 36.5 C 180.1844024658203 36.79999923706055 180.0644073486328 37.09333419799805 179.82440185546875 37.380001068115234 C 178.6377410888672 38.69333267211914 177.58773803710938 39.790000915527344 176.67440795898438 40.66999816894531 C 176.00106811523438 41.34333419799805 175.20108032226562 41.98666763305664 174.27439880371094 42.599998474121094 C 173.3477325439453 43.220001220703125 172.58106994628906 43.529998779296875 171.9744110107422 43.529998779296875 C 171.23440551757812 43.529998779296875 170.86441040039062 43.016666412353516 170.86441040039062 41.9900016784668 C 170.86441040039062 40.29666519165039 171.49440002441406 38.52000045776367 172.75440979003906 36.65999984741211 C 174.0077362060547 34.80666732788086 175.45773315429688 33.5533332824707 177.10440063476562 32.900001525878906 C 177.79774475097656 32.606666564941406 178.42440795898438 32.459999084472656 178.98440551757812 32.459999084472656 C 179.60440063476562 32.459999084472656 179.91439819335938 32.709999084472656 179.91439819335938 33.209999084472656 C 179.91439819335938 34.13666534423828 179.2577362060547 35.20000076293945 177.9444122314453 36.400001525878906 C 176.6377410888672 37.599998474121094 175.16773986816406 38.51333236694336 173.53440856933594 39.13999938964844 C 173.46774291992188 39.1533317565918 173.41107177734375 39.2066650390625 173.36441040039062 39.29999923706055 C 173.12440490722656 39.959999084472656 173.00440979003906 40.54666519165039 173.00440979003906 41.060001373291016 C 173.00440979003906 41.63333511352539 173.2210693359375 41.91999816894531 173.65440368652344 41.91999816894531 C 174.34107971191406 41.91999816894531 175.24440002441406 41.400001525878906 176.36441040039062 40.36000061035156 Z" transform="matrix(2.066666603088379, 0, 0, 2.066666603088379, -205.6348419189453, -30.663049697875977)" style="fill: rgb(51, 51, 51); white-space: pre; color: rgb(51, 51, 51);"/></svg>